<svg width="3720" height="2145" viewBox="0 0 3720 2145" fill="none" xmlns="http://www.w3.org/2000/svg">
<path d="M364.437 867.712C365.167 858.733 368.799 850.225 374.789 843.463C380.779 836.702 388.805 832.05 397.665 830.204L725.577 761.693C732.069 760.342 738.788 760.544 745.181 762.284C751.573 764.023 757.457 767.25 762.346 771.699C767.236 776.148 770.993 781.691 773.306 787.872C775.62 794.053 776.425 800.696 775.655 807.253L720.829 1273.53L1032.84 1208.35C1040.51 1206.74 1048.48 1207.3 1055.84 1209.98C1063.2 1212.66 1069.65 1217.35 1074.46 1223.51C1079.27 1229.66 1082.24 1237.04 1083.04 1244.8C1083.84 1252.57 1082.43 1260.4 1078.98 1267.41L658.609 2121.52C654.31 2130.3 647.051 2137.31 638.1 2141.32C629.148 2145.33 619.072 2146.09 609.629 2143.46C600.187 2140.83 591.978 2134.98 586.435 2126.94C580.892 2118.89 578.366 2109.16 579.3 2099.43L627.133 1591.11L354.72 1648.02C348.348 1649.36 341.754 1649.19 335.462 1647.55C329.169 1645.9 323.352 1642.82 318.471 1638.54C313.59 1634.26 309.781 1628.91 307.345 1622.9C304.909 1616.9 303.915 1610.41 304.44 1603.95L364.437 867.712ZM445.377 905.377L392.429 1555L665.579 1497.93C671.994 1496.59 678.632 1496.77 684.96 1498.44C691.288 1500.12 697.13 1503.26 702.015 1507.59C706.9 1511.93 710.692 1517.35 713.086 1523.42C715.479 1529.49 716.409 1536.03 715.798 1542.53L683.974 1880.63L966.109 1307.43L680.989 1367C674.497 1368.35 667.778 1368.15 661.385 1366.41C654.993 1364.67 649.109 1361.44 644.22 1356.99C639.33 1352.54 635.573 1347 633.26 1340.82C630.946 1334.64 630.141 1328 630.911 1321.44L685.736 855.159L445.377 905.377Z" fill="white"/>
<path d="M701.88 481.502C722.907 582.095 658.386 680.684 557.768 701.706C457.15 722.728 358.537 658.223 337.51 557.63C316.482 457.037 381.003 358.448 481.621 337.426C582.239 316.404 680.852 380.909 701.88 481.502Z" fill="#FFE600"/>
<path d="M819.371 87.9668C824.061 80.8006 833.674 78.7922 840.842 83.4809C848.01 88.1697 850.019 97.7801 845.329 104.946L726.443 286.605C721.753 293.772 712.14 295.78 704.972 291.091C697.804 286.402 695.795 276.792 700.485 269.626L819.371 87.9668Z" fill="#FFE600"/>
<path d="M414.993 18.6814C413.241 10.2986 418.617 2.08288 427.002 0.331033C435.387 -1.42081 443.605 3.95461 445.357 12.3374L489.776 224.834C491.528 233.217 486.152 241.432 477.767 243.184C469.382 244.936 461.164 239.561 459.412 231.178L414.993 18.6814Z" fill="#FFE600"/>
<path d="M18.686 624.242C10.3011 625.994 2.0834 620.619 0.331115 612.236C-1.42117 603.853 3.95559 595.637 12.3404 593.885L224.89 549.477C233.274 547.726 241.492 553.101 243.244 561.484C244.997 569.867 239.62 578.082 231.235 579.834L18.686 624.242Z" fill="#FFE600"/>
<path d="M90.2981 231.012C83.1301 226.324 81.1212 216.713 85.8111 209.547C90.501 202.381 100.114 200.372 107.282 205.061L288.986 323.918C296.154 328.606 298.163 338.217 293.473 345.383C288.783 352.549 279.17 354.558 272.002 349.869L90.2981 231.012Z" fill="#FFE600"/>
<path d="M2116.04 1395.95L1963.5 1130.97H1880.56V1395.95H1771.87V733.502H2000.68C2051.53 733.502 2094.43 742.398 2129.39 760.191C2164.99 777.983 2191.36 801.812 2208.52 831.677C2226.32 861.543 2235.22 894.903 2235.22 931.759C2235.22 974.968 2222.51 1014.37 2197.08 1049.95C2172.3 1084.9 2133.84 1108.73 2081.72 1121.44L2245.71 1395.95H2116.04ZM1880.56 1044.23H2000.68C2041.36 1044.23 2071.87 1034.06 2092.21 1013.73C2113.18 993.396 2123.67 966.072 2123.67 931.759C2123.67 897.445 2113.5 870.757 2093.16 851.694C2072.82 831.995 2042 822.146 2000.68 822.146H1880.56V1044.23Z" fill="#FFE500"/>
<path d="M2855.72 1120.48C2855.72 1140.18 2854.45 1157.97 2851.91 1173.86H2450.53C2453.71 1215.8 2469.28 1249.48 2497.25 1274.89C2525.21 1300.31 2559.53 1313.02 2600.21 1313.02C2658.69 1313.02 2700 1288.56 2724.15 1239.63H2841.42C2825.53 1287.92 2796.61 1327.64 2754.66 1358.77C2713.35 1389.27 2661.86 1404.52 2600.21 1404.52C2550 1404.52 2504.87 1393.4 2464.83 1371.16C2425.42 1348.29 2394.28 1316.52 2371.4 1275.85C2349.15 1234.54 2338.03 1186.89 2338.03 1132.87C2338.03 1078.86 2348.83 1031.52 2370.44 990.854C2392.69 949.551 2423.52 917.779 2462.92 895.539C2502.97 873.299 2548.73 862.178 2600.21 862.178C2649.79 862.178 2693.96 872.981 2732.73 894.586C2771.5 916.19 2801.7 946.692 2823.31 986.089C2844.92 1024.85 2855.72 1069.65 2855.72 1120.48ZM2742.27 1086.17C2741.63 1046.14 2727.33 1014.05 2699.36 989.901C2671.4 965.755 2636.76 953.681 2595.44 953.681C2557.94 953.681 2525.85 965.755 2499.15 989.901C2472.46 1013.41 2456.57 1045.5 2451.48 1086.17H2742.27Z" fill="#FFE500"/>
<path d="M3071.37 690.61V1395.95H2962.68V690.61H3071.37Z" fill="#FFE500"/>
<path d="M3269.36 801.176C3249.66 801.176 3233.13 794.504 3219.78 781.16C3206.43 767.816 3199.76 751.295 3199.76 731.596C3199.76 711.897 3206.43 695.376 3219.78 682.032C3233.13 668.688 3249.66 662.016 3269.36 662.016C3288.43 662.016 3304.63 668.688 3317.98 682.032C3331.33 695.376 3338 711.897 3338 731.596C3338 751.295 3331.33 767.816 3317.98 781.16C3304.63 794.504 3288.43 801.176 3269.36 801.176ZM3322.75 870.757V1395.95H3214.06V870.757H3322.75Z" fill="#FFE500"/>
<path d="M3592.25 959.4V1250.11C3592.25 1269.81 3596.69 1284.11 3605.59 1293C3615.13 1301.27 3631.02 1305.4 3653.26 1305.4H3720V1395.95H3634.19C3585.25 1395.95 3547.75 1384.51 3521.69 1361.63C3495.64 1338.76 3482.61 1301.58 3482.61 1250.11V959.4H3420.64V870.757H3482.61V740.174H3592.25V870.757H3720V959.4H3592.25Z" fill="#FFE500"/>
</svg>
