<svg width="1142" height="2262" viewBox="0 0 1142 2262" fill="none" xmlns="http://www.w3.org/2000/svg">
<path d="M384.199 915.042C384.969 905.573 388.798 896.601 395.113 889.47C401.428 882.34 409.889 877.434 419.228 875.488L764.922 803.24C771.766 801.815 778.85 802.029 785.589 803.863C792.328 805.697 798.531 809.1 803.686 813.792C808.841 818.483 812.801 824.328 815.24 830.847C817.679 837.365 818.528 844.371 817.716 851.285L759.917 1343L1088.84 1274.26C1096.94 1272.56 1105.34 1273.16 1113.1 1275.98C1120.85 1278.81 1127.65 1283.75 1132.72 1290.24C1137.79 1296.73 1140.93 1304.52 1141.77 1312.7C1142.61 1320.89 1141.13 1329.15 1137.49 1336.55L694.323 2237.24C689.791 2246.5 682.138 2253.89 672.701 2258.12C663.264 2262.35 652.642 2263.15 642.687 2260.38C632.733 2257.6 624.078 2251.44 618.235 2242.95C612.391 2234.47 609.729 2224.2 610.713 2213.95L661.14 1677.89L373.955 1737.91C367.238 1739.32 360.286 1739.15 353.653 1737.41C347.019 1735.68 340.886 1732.43 335.74 1727.92C330.595 1723.4 326.579 1717.76 324.011 1711.43C321.443 1705.09 320.395 1698.25 320.949 1691.44L384.199 915.042ZM469.528 954.761L413.709 1639.82L701.671 1579.64C708.433 1578.22 715.432 1578.41 722.103 1580.18C728.774 1581.95 734.933 1585.25 740.083 1589.83C745.232 1594.4 749.23 1600.12 751.754 1606.51C754.277 1612.91 755.257 1619.81 754.613 1626.66L721.064 1983.21L1018.5 1378.74L717.917 1441.56C711.072 1442.99 703.989 1442.77 697.25 1440.94C690.511 1439.11 684.308 1435.7 679.153 1431.01C673.998 1426.32 670.038 1420.47 667.599 1413.96C665.16 1407.44 664.311 1400.43 665.123 1393.52L722.921 901.804L469.528 954.761Z" fill="white"/>
<path d="M739.94 507.766C762.108 613.846 694.088 717.812 588.014 739.981C481.94 762.15 377.979 694.126 355.812 588.046C333.644 481.966 401.664 378 507.738 355.831C613.812 333.663 717.772 401.686 739.94 507.766Z" fill="#FFE600"/>
<path d="M863.803 92.7651C868.747 85.208 878.881 83.09 886.438 88.0345C893.994 92.979 896.112 103.114 891.168 110.671L765.835 302.238C760.891 309.796 750.757 311.913 743.2 306.969C735.643 302.024 733.526 291.89 738.47 284.333L863.803 92.7651Z" fill="#FFE600"/>
<path d="M437.496 19.7003C435.649 10.8603 441.317 2.19649 450.157 0.349089C458.996 -1.49831 467.66 4.17031 469.507 13.0103L516.335 237.098C518.182 245.938 512.514 254.601 503.674 256.449C494.835 258.296 486.171 252.628 484.324 243.788L437.496 19.7003Z" fill="#FFE600"/>
<path d="M19.6993 658.292C10.8597 660.139 2.19637 654.471 0.34907 645.631C-1.49823 636.791 4.17008 628.127 13.0096 626.279L237.085 579.449C245.924 577.602 254.587 583.27 256.435 592.11C258.282 600.95 252.614 609.614 243.774 611.462L19.6993 658.292Z" fill="#FFE600"/>
<path d="M95.1947 243.613C87.638 238.668 85.5201 228.534 90.4644 220.977C95.4086 213.42 105.543 211.302 113.099 216.246L304.656 341.586C312.213 346.53 314.331 356.665 309.387 364.222C304.442 371.779 294.308 373.897 286.752 368.953L95.1947 243.613Z" fill="#FFE600"/>
</svg>
